# xmcd CD database file generated by Grip 3.3.1
# 
# Track frame offsets:
#       150
#       38091
#       73888
#       108956
#       135537
#       151561
#       179244
# 
# Disc length: 3175 seconds
# 
# Revision: 1
# Processed by: cddbd v1.5.2PL0 Copyright (c) Steve Scherf et al.
# Submitted via: Grip 3.3.1
# 
DISCID=5a0c6507
DTITLE=Helmet of Gnats - Helmet of Gnats II
DYEAR=2004
DGENRE=Fusion
TTITLE0=Almost Babylon
TTITLE1=Chinese Leftovers
TTITLE2=Yesterdays Brain
TTITLE3=Crumbs
TTITLE4=Lesser Beings
TTITLE5=Misfit Toys
TTITLE6=Chimps in Space
EXTD=
EXTT0=
EXTT1=
EXTT2=
EXTT3=
EXTT4=
EXTT5=
EXTT6=
PLAYORDER=
